<svg width="810" height="540" xmlns:xlink="http://www.w3.org/1999/xlink" xmlns="http://www.w3.org/2000/svg"><rect fill="#039" width="810" height="540" /><path id="star" fill="#fc0" d="m 315,84.09 -6.8,20.71 h -21.7 l 17.6,12.9 -6.7,20.7 17.6,-12.9 17.6,12.9 -6.7,-20.7 17.6,-12.9 h -21.7 z" /><use xlink:href="#star" x="10" y="10" id="use1874" transform="translate(-100,145.9)" /><use xlink:href="#star" x="10" y="10" id="use1874-9" transform="translate(-75.9,55.9)" /><use xlink:href="#star" x="10" y="10" id="use1876" transform="translate(-75.9,235.9)" /><use xlink:href="#star" x="10" y="10" id="use1878" transform="translate(-10,301.8)" /><use xlink:href="#star" x="10" y="10" id="use1880" transform="translate(80.1,326)" /><use xlink:href="#star" x="10" y="10" id="use1882" transform="translate(170.3,301.3)" /><use xlink:href="#star" x="10" y="10" id="use1884" transform="translate(236.2,235.2)" /><use xlink:href="#star" x="10" y="10" id="use1886" transform="translate(260.2,145.6)" /><use xlink:href="#star" x="10" y="10" id="use1888" transform="translate(236.1,55.7)" /><use xlink:href="#star" x="10" y="10" id="use1890" transform="translate(170.3,-10.09)" /><use xlink:href="#star" x="10" y="10" id="use1892" transform="translate(80,-34.1)" /></svg>
