<svg xmlns="http://www.w3.org/2000/svg" height="14" width="20" version="1.1" >
  <rect fill="#fff" y="0" x="0" height="14" width="20" />
  <path fill="#de2910" d="M 0 0 L 0 14 L 20 14 L 20 0 L 0 0 z M 10.980469 2.921875 C 10.50526 3.1661035 10.437601 3.6227639 10.708984 4.0449219 C 11.012888 4.5175572 10.680356 5.2761646 10.269531 5.4609375 C 9.6539858 5.7380128 9.4940644 6.4340099 9.8789062 6.875 C 9.6468401 6.7053513 9.4605604 6.4396043 9.3730469 6.1210938 C 9.2536974 5.6854677 9.3212456 5.216159 9.5605469 4.8359375 L 9.5097656 4.8046875 C 9.2614852 5.1996908 9.1906142 5.6846136 9.3144531 6.1367188 C 9.4023122 6.4567614 9.5797057 6.7183429 9.8066406 6.8964844 C 7.6179131 5.7718463 8.699193 2.7657172 10.980469 2.921875 z M 9.6386719 4.2050781 L 9.6542969 4.4628906 L 9.4296875 4.5878906 L 9.6777344 4.6523438 L 9.7285156 4.9042969 L 9.8671875 4.6875 L 10.121094 4.71875 L 9.9589844 4.5195312 L 10.066406 4.2871094 L 9.8261719 4.3808594 L 9.6386719 4.2050781 z M 6.4238281 4.8066406 C 6.5092556 5.3340619 6.9228448 5.5417093 7.4082031 5.4140625 C 7.9516174 5.2710854 8.5723162 5.8217152 8.6210938 6.2695312 C 8.6942051 6.9388439 9.3027646 7.3062508 9.8398438 7.0800781 C 9.6073959 7.2468608 9.2987257 7.3412772 8.9707031 7.3261719 C 8.519517 7.3050641 8.0943046 7.095084 7.8066406 6.75 L 7.7597656 6.7890625 C 8.0587132 7.1472533 8.4985511 7.3647884 8.9667969 7.3867188 C 9.2995835 7.402117 9.6056493 7.3129319 9.8457031 7.1503906 C 8.0996179 8.8899246 5.569844 6.9292897 6.4238281 4.8066406 z M 11.962891 4.9824219 C 12.907732 4.9475408 13.895163 5.5300165 14.181641 6.671875 C 13.802518 6.2953954 13.346931 6.3712107 13.029297 6.7597656 C 12.673705 7.1948475 11.849556 7.1148701 11.546875 6.78125 C 11.091873 6.2800491 10.379025 6.3436846 10.080078 6.8496094 C 10.169292 6.5748425 10.365375 6.3133871 10.642578 6.1308594 C 11.020002 5.8827353 11.486315 5.8039684 11.921875 5.9140625 L 11.9375 5.8554688 C 11.485106 5.741403 11.001085 5.8225922 10.609375 6.0800781 C 10.330116 6.2638729 10.135506 6.5172966 10.037109 6.7910156 C 10.225273 5.6069923 11.070451 5.0153684 11.962891 4.9824219 z M 12.117188 5.7109375 L 12.132812 5.96875 L 11.908203 6.09375 L 12.158203 6.1582031 L 12.207031 6.4101562 L 12.345703 6.1933594 L 12.601562 6.2246094 L 12.4375 6.0253906 L 12.544922 5.7929688 L 12.306641 5.8867188 L 12.117188 5.7109375 z M 7.4394531 6.0996094 L 7.4550781 6.3554688 L 7.2304688 6.4804688 L 7.4804688 6.5449219 L 7.5292969 6.796875 L 7.6679688 6.5800781 L 7.9238281 6.6113281 L 7.7597656 6.4121094 L 7.8671875 6.1796875 L 7.6289062 6.2734375 L 7.4394531 6.0996094 z M 10.470703 6.9316406 C 12.713214 6.7932425 13.473725 9.7025422 11.603516 10.875 C 11.844414 10.398094 11.631754 9.9906117 11.164062 9.8085938 C 10.640393 9.6048538 10.46179 8.7933051 10.685547 8.4023438 C 11.022491 7.8131981 10.738697 7.1545222 10.162109 7.0292969 C 10.452601 7.0276574 10.764504 7.1332607 11.025391 7.3417969 C 11.378002 7.6240739 11.597063 8.043924 11.626953 8.4921875 L 11.6875 8.4882812 C 11.656189 8.0227797 11.428428 7.5878918 11.0625 7.2949219 C 10.804729 7.0887842 10.50955 6.9805389 10.222656 6.96875 C 10.30562 6.9559213 10.391597 6.9365228 10.470703 6.9316406 z M 10.023438 7.1679688 C 10.113174 7.44253 10.109206 7.76936 9.9921875 8.0800781 C 9.8326887 8.5026588 9.5010718 8.8408646 9.0839844 9.0078125 L 9.1054688 9.0644531 C 9.5385082 8.8908245 9.8832753 8.5401137 10.048828 8.1015625 C 10.165499 7.7919736 10.175883 7.4762845 10.097656 7.1992188 C 11.205166 9.3948272 8.5619828 11.189545 6.8085938 9.7226562 C 7.3365996 9.804392 7.6608684 9.4756574 7.6894531 8.9746094 C 7.7213981 8.4136093 8.437935 7.9939449 8.8789062 8.0859375 C 9.5416686 8.2239865 10.079264 7.7531336 10.023438 7.1679688 z M 11.451172 8.5351562 L 11.466797 8.7910156 L 11.242188 8.9179688 L 11.492188 8.9824219 L 11.541016 9.234375 L 11.679688 9.0175781 L 11.935547 9.046875 L 11.771484 8.8496094 L 11.878906 8.6152344 L 11.640625 8.7089844 L 11.451172 8.5351562 z M 8.5605469 8.7753906 L 8.5761719 9.03125 L 8.3515625 9.15625 L 8.6015625 9.2207031 L 8.6503906 9.4726562 L 8.7890625 9.2558594 L 9.0449219 9.2871094 L 8.8808594 9.0878906 L 8.9882812 8.8554688 L 8.75 8.9492188 L 8.5605469 8.7753906 z " />
</svg>
