<svg xmlns="http://www.w3.org/2000/svg" viewBox="0 0 20 14" height="14" width="20">
<rect fill="#319208" y="0" x="0" height="14" width="20" />
<rect fill="#ffd200" x="0" y="2" height="10" width="20" />
<rect fill="#de2010" x="0" y="4" height="6" width="20" />
<rect fill="#000000" x="0" y="6" height="2" width="20" />
<path fill="#000000" d="M 0.5091752,0 9.8425084,7 0.5091752,14 H 0 V 0 Z" />
<path fill="#ffffff" d="M 0,0 9.3333332,7 0,14" />
<g
transform="scale(0.11111112)"
>
<g
style="
fill="#de2010""

transform="matrix(32,0,0,32,34,63)"
>
<g
>
<polygon
transform="rotate(26.267699,2.1428864,-0.5)"
points="0,0 0,1 0.75,1 "
 />
<use
height="100%"
width="100%"
y="0"
x="0"
transform="scale(-1,1)"
xlink:href="#triangle_ur"
 />
<polygon
transform="rotate(19.579961,2.8977124,-0.5)"
points="0,0 0,1 0.75,1 "
 />
<use
height="100%"
width="100%"
y="0"
x="0"
transform="scale(-1,1)"
xlink:href="#triangle2_ur"
 />
</g>
<use
height="100%"
width="100%"
y="0"
x="0"

transform="rotate(72)"
xlink:href="#triangle_ur" />
<use
height="100%"
width="100%"
y="0"
x="0"

transform="rotate(-72)"
xlink:href="#triangle_ul" />
<use
height="100%"
width="100%"
y="0"
x="0"

transform="rotate(72)"
xlink:href="#triangle2_ur" />
<use
height="100%"
width="100%"
y="0"
x="0"

transform="rotate(-72)"
xlink:href="#triangle2_ul" />
</g>
<g
style="
fill="#de2010""

transform="matrix(27.5,0,0,27.5,34,63)"
>
<g
>
<polygon
transform="rotate(24.224821,2.3298293,-0.5)"
points="0,0 0,1 0.5,1 "
 />
<use
height="100%"
width="100%"
y="0"
x="0"

transform="scale(-1,1)"
xlink:href="#triangle_l" />
</g>
<use
height="100%"
width="100%"
y="0"
x="0"

transform="rotate(144)"
xlink:href="#cone_l" />
<use
height="100%"
width="100%"
y="0"
x="0"

transform="rotate(-144)"
xlink:href="#cone_l" />
</g>
</g>
<g
transform="scale(0.11111112)"
>
<path

style="overflow:visible;
fill="#ffc618""

d="m 28.63541,55.109321 c 1.976151,4.30526 2.470343,4.58772 7.410824,6.28162 4.940481,1.69369 18.897601,3.29951 20.273897,3.45831 -0.899886,-0.89988 -16.621419,-12.54545 -19.850421,-14.87457 -3.229003,-2.32911 -4.128888,-3.3878 -4.128888,-3.3878 0,0 -2.911395,-5.2405 -3.91715,-6.7756 -1.005754,-1.5351 -2.858461,-3.70541 -5.293445,-3.70541 -2.434985,0 -3.917047,1.42923 -4.622874,3.97008 -0.388221,0.10587 -2.470344,1.3765 -2.39973,2.68208 0.599959,-0.07072 4.375985,-1.12941 5.681667,3.1407 1.305785,4.27011 1.376295,11.25725 0.03525,14.71577 -1.341041,3.45852 -3.42306,6.06967 -3.42306,9.10472 0,0.42347 0.282248,1.27042 0.988075,1.27042 0.246993,1.34115 2.223247,10.90449 2.223247,10.90449 h 28.161235 l 4.472961,-17.29197" />
<g

style="overflow:visible;
fill="none"
;stroke:#000000;stroke-width:0.21173774">
<path

d="m 28.63541,55.109321 c 1.976151,4.30526 2.470343,4.58772 7.410824,6.28162 4.940481,1.69369 18.897601,3.29951 20.273897,3.45831 -0.899886,-0.89988 -16.621419,-12.54545 -19.850421,-14.87457 -3.229003,-2.32911 -4.128888,-3.3878 -4.128888,-3.3878 0,0 -2.911395,-5.2405 -3.91715,-6.7756 -1.005754,-1.5351 -2.858461,-3.70541 -5.293445,-3.70541 -2.434985,0 -3.917047,1.42923 -4.622874,3.97008 -0.388221,0.10587 -2.470344,1.3765 -2.39973,2.68208 0.599959,-0.07072 4.375985,-1.12941 5.681667,3.1407 1.305785,4.27011 1.376295,11.25725 0.03525,14.71577 -1.341041,3.45852 -3.42306,6.06967 -3.42306,9.10472 0,0.42347 0.282248,1.27042 0.988075,1.27042 0.246993,1.34115 2.223247,10.90449 2.223247,10.90449 h 28.161235 l 4.472961,-17.29197" />
<path

d="m 19.38956,70.989641 c 0,0 5.999272,-0.35276 7.622665,-0.35276 1.623185,0 16.733905,0.01862 25.164751,1.96788" />
<path

d="m 21.508178,70.870751 c 0,0 -0.601095,-0.72806 -0.212978,-2.17486 0.388118,-1.44681 4.622977,-5.18778 4.622977,-10.48102" />
<path

d="m 25.141736,70.636881 c 0,0 -0.493986,-2.36447 4.905329,-4.37598 1.517522,-0.45883 5.857942,-2.89381 5.999169,-4.86996" />
<path

d="m 29.473056,66.485261 c 0,0 13.243334,0.05789 23.724149,2.17527" />
<path

d="m 32.792626,64.905291 c 0,0 4.550502,0.1557 5.291585,-0.05604 0.741082,-0.21174 2.052866,-0.76217 2.574765,-2.31319" />
<path

d="m 35.490423,64.959261 c 0,0 2.434159,-1.26547 2.910981,-2.91098" />
<path

d="m 28.141424,81.894131 c 0,0 -1.041113,-7.21645 -1.25285,-11.25725 l 2.717439,2.59379 2.874796,-2.51418 2.471583,2.63783 2.857635,-2.42485 2.470963,2.77761 2.829928,-2.40665 2.25178,2.61839 2.822278,-2.04087 3.355133,3.18868" />
<path

d="m 50.9508,77.345081 c -10.080498,-1.4437 -23.570309,-1.35003 -23.570309,-1.35003" />
<path

d="m 22.693931,51.052191 c 0,0 8.199879,-3.91839 9.646891,-4.46531" />
</g>
<g

transform="matrix(0.211738,0,0,0.211738,16,36)"
style="overflow:visible;
fill="none"
;stroke:#000000">
<polyline

points="52.4873047,177.0859375 65.5048828,188.9375 77.2666016,177.1757813 89.1630859,189.4423828 102.0087891,178.0839844 113.8359375,190.5136719 127.1748047,179.5009766 138.0722656,192.2285156 151.3417969,182.0839844 165.2890625,194.4033203" />
<circle

r="5.1665039"
cy="154.58398"
cx="89.425293" />
<circle

r="5.1665039"
cy="156.04688"
cx="111.23682" />
<circle

r="4"
cy="16.5"
cx="30.049805" />
</g>
</g>
</svg>
