<svg viewBox="0 0 64 64" xmlns="http://www.w3.org/2000/svg" >
<path d="m 28.191523,29.631199 c -1.439157,1.003904 -2.809163,3.322945 -3.92344,6.522342 -1.386973,3.982492 -2.293156,9.160872 -2.437559,14.099487 H 40.462649 C 40.28859,45.417738 39.396917,40.377487 38.04179,36.486432 37.001106,33.498234 35.737822,31.284707 34.402178,30.18616 h -0.0167 c -0.835909,0.556472 -1.733422,0.888109 -2.687989,0.888109 -1.263015,0 -2.451742,-0.541538 -3.50602,-1.443238 z"/>
<path d="M 13.435471,30.406544 C 10.760916,34.522619 8.738368,42.496033 8.343375,50.251173 h 11.887266 c 0.14315,-5.430031 1.111708,-11.001477 2.65459,-15.431902 0.06681,-0.191855 0.147995,-0.36721 0.217038,-0.555096 -0.441049,-1.147511 -0.92893,-2.183947 -1.435785,-3.080735 -1.098488,1.144984 -2.368407,1.915104 -3.756504,1.915104 -1.699114,0 -3.246974,-1.037951 -4.474397,-2.69222 z" />
<path d="m 44.537182,32.100505 c -1.404581,2.161613 -2.610863,5.51119 -3.455978,9.297403 0.555293,2.8424 0.905595,5.86768 1.001721,8.854108 h 14.157674 c -0.33918,-6.690809 -1.945476,-13.516292 -4.15717,-17.430102 -1.008571,1.051265 -2.16481,1.776299 -3.439279,1.776299 -1.560063,0 -2.980112,-0.979042 -4.107075,-2.497877 z"/>
<path d="m 31.702575,13.746972 c -3.301995,0 -5.976817,2.806486 -5.976817,6.292597 0,3.486109 2.674982,6.310259 5.976817,6.310259 3.301834,0 5.960224,-2.824096 5.960224,-6.310259 0,-3.486164 -2.658283,-6.292597 -5.960224,-6.292597 z" />
<path d="M 2.888304,46.458607 2.690809,46.245851 A 2.4817049,1.5477376 89.56502 0 1 2.2582628,42.800393 L 8.410751,28.028548 a 2.4817049,1.5477376 89.56502 0 1 2.145768,-0.667912 l 0.197495,0.212758 a 2.4817049,1.5477376 89.56502 0 1 0.432546,3.445457 L 5.0340719,45.790699 A 2.4817049,1.5477376 89.56502 0 1 2.888304,46.458607" />
<path d="m 48.653034,18.398045 c -2.755426,0 -4.987674,2.341968 -4.987674,5.251056 0,2.90909 2.232195,5.265721 4.987674,5.265721 2.75548,0 4.973706,-2.356686 4.973706,-5.265721 0,-2.909035 -2.218279,-5.251056 -4.973706,-5.251056 z"/>
<path d="m 17.915273,16.364204 c -3.001093,0 -5.432496,2.550704 -5.432496,5.719375 0,3.168671 2.431189,5.734896 5.432496,5.734896 3.001308,0 5.416975,-2.566761 5.416975,-5.734896 0,-3.168136 -2.416042,-5.719375 -5.416975,-5.719375 z"/>
<path d="M 61.328783,46.94906 A 2.4676018,1.5281014 89.445177 0 0 61.73774,43.529015 L 56.563847,31.106738 a 2.4676018,1.5281014 89.445177 0 0 -2.12218,-0.693323 2.4676018,1.5281014 89.445177 0 0 -0.408957,3.420046 l 5.173894,12.422277 a 2.4676018,1.5281014 89.445177 0 0 2.122179,0.693321"/>
<path d="m 39.179617,27.532708 c -0.293665,-0.0043 -0.589119,0.133701 -0.851484,0.41632 l -0.25043,0.277548 c -0.699588,0.75366 -0.875248,2.274461 -0.400694,3.413795 l 2.754731,6.633335 c 0.206644,-0.717 0.434675,-1.412141 0.667796,-2.081633 0.376501,-1.081101 0.790469,-2.092762 1.235452,-3.025281 L 40.448386,28.64282 c -0.296604,-0.71213 -0.77939,-1.103015 -1.268849,-1.110177 z"/>
</svg>
